<?xml version="1.0" encoding="UTF-8" standalone="no"?>
<!DOCTYPE svg PUBLIC "-//W3C//DTD SVG 1.1//EN"
 "http://www.w3.org/Graphics/SVG/1.1/DTD/svg11.dtd">
<!-- Generated by graphviz version 2.42.3 ()
 -->
<!-- Title: %3 Pages: 1 -->
<svg width="573pt" height="486pt"
 viewBox="0.00 0.00 573.00 486.00" xmlns="http://www.w3.org/2000/svg" xmlns:xlink="http://www.w3.org/1999/xlink">
<g id="graph0" class="graph" transform="scale(1 1) rotate(0) translate(4 482)">
<title>%3</title>
<polygon fill="white" stroke="transparent" points="-4,4 -4,-482 569,-482 569,4 -4,4"/>
<!-- consumes -->
<g id="node1" class="node">
<title>consumes</title>
<polygon fill="none" stroke="black" points="8.5,-191 8.5,-219 143.5,-219 143.5,-191 8.5,-191"/>
<text text-anchor="start" x="36" y="-202.2" font-family="Helvetica,sans-Serif" font-weight="bold" font-size="16.00">consumes</text>
<polygon fill="none" stroke="black" points="8.5,-166 8.5,-191 143.5,-191 143.5,-166 8.5,-166"/>
<text text-anchor="start" x="13.5" y="-175.8" font-family="Helvetica,sans-Serif" text-decoration="underline" font-size="14.00">id</text>
<polygon fill="none" stroke="black" points="8.5,-141 8.5,-166 143.5,-166 143.5,-141 8.5,-141"/>
<text text-anchor="start" x="13.5" y="-150.8" font-family="Helvetica,sans-Serif" font-style="italic" font-size="14.00">questionair_result_id</text>
<polygon fill="none" stroke="black" points="8.5,-116 8.5,-141 143.5,-141 143.5,-116 8.5,-116"/>
<text text-anchor="start" x="13.5" y="-124.8" font-family="Helvetica,sans-Serif" font-size="14.00">name</text>
<polygon fill="none" stroke="black" points="8.5,-91 8.5,-116 143.5,-116 143.5,-91 8.5,-91"/>
<text text-anchor="start" x="13.5" y="-99.8" font-family="Helvetica,sans-Serif" font-size="14.00">rate</text>
<polygon fill="none" stroke="black" points="8.5,-66 8.5,-91 143.5,-91 143.5,-66 8.5,-66"/>
<text text-anchor="start" x="13.5" y="-74.8" font-family="Helvetica,sans-Serif" font-size="14.00">created_at</text>
<polygon fill="none" stroke="black" points="8.5,-41 8.5,-66 143.5,-66 143.5,-41 8.5,-41"/>
<text text-anchor="start" x="13.5" y="-49.8" font-family="Helvetica,sans-Serif" font-size="14.00">updated_at</text>
<polygon fill="none" stroke="black" points="8.5,-16 8.5,-41 143.5,-41 143.5,-16 8.5,-16"/>
<text text-anchor="start" x="13.5" y="-24.8" font-family="Helvetica,sans-Serif" font-size="14.00">deleted_at</text>
</g>
<!-- questionair_results -->
<g id="node2" class="node">
<title>questionair_results</title>
<polygon fill="none" stroke="black" points="232,-191 232,-219 390,-219 390,-191 232,-191"/>
<text text-anchor="start" x="237" y="-202.2" font-family="Helvetica,sans-Serif" font-weight="bold" font-size="16.00">questionair_results</text>
<polygon fill="none" stroke="black" points="232,-166 232,-191 390,-191 390,-166 232,-166"/>
<text text-anchor="start" x="237" y="-175.8" font-family="Helvetica,sans-Serif" text-decoration="underline" font-size="14.00">id</text>
<polygon fill="none" stroke="black" points="232,-141 232,-166 390,-166 390,-141 232,-141"/>
<text text-anchor="start" x="237" y="-149.8" font-family="Helvetica,sans-Serif" font-size="14.00">score</text>
<polygon fill="none" stroke="black" points="232,-116 232,-141 390,-141 390,-116 232,-116"/>
<text text-anchor="start" x="237" y="-124.8" font-family="Helvetica,sans-Serif" font-size="14.00">filling_date</text>
<polygon fill="none" stroke="black" points="232,-91 232,-116 390,-116 390,-91 232,-91"/>
<text text-anchor="start" x="237" y="-100.8" font-family="Helvetica,sans-Serif" font-style="italic" font-size="14.00">user_id</text>
<polygon fill="none" stroke="black" points="232,-66 232,-91 390,-91 390,-66 232,-66"/>
<text text-anchor="start" x="237" y="-74.8" font-family="Helvetica,sans-Serif" font-size="14.00">created_at</text>
<polygon fill="none" stroke="black" points="232,-41 232,-66 390,-66 390,-41 232,-41"/>
<text text-anchor="start" x="237" y="-49.8" font-family="Helvetica,sans-Serif" font-size="14.00">updated_at</text>
<polygon fill="none" stroke="black" points="232,-16 232,-41 390,-41 390,-16 232,-16"/>
<text text-anchor="start" x="237" y="-24.8" font-family="Helvetica,sans-Serif" font-size="14.00">deleted_at</text>
</g>
<!-- consumes&#45;&#45;questionair_results -->
<g id="edge1" class="edge">
<title>consumes&#45;&#45;questionair_results</title>
<path fill="none" stroke="#7f7f7f" stroke-dasharray="5,2" d="M151.02,-118C174.25,-118 200.05,-118 223.99,-118"/>
<text text-anchor="start" x="216.99" y="-106.8" font-family="Times,serif" font-size="14.00">1</text>
<text text-anchor="start" x="151.02" y="-106.8" font-family="Times,serif" font-size="14.00">0..N</text>
</g>
<!-- users -->
<g id="node3" class="node">
<title>users</title>
<polygon fill="none" stroke="black" points="479,-204 479,-232 557,-232 557,-204 479,-204"/>
<text text-anchor="start" x="496.5" y="-215.2" font-family="Helvetica,sans-Serif" font-weight="bold" font-size="16.00">users</text>
<polygon fill="none" stroke="black" points="479,-179 479,-204 557,-204 557,-179 479,-179"/>
<text text-anchor="start" x="484" y="-188.8" font-family="Helvetica,sans-Serif" text-decoration="underline" font-size="14.00">id</text>
<polygon fill="none" stroke="black" points="479,-154 479,-179 557,-179 557,-154 479,-154"/>
<text text-anchor="start" x="484" y="-162.8" font-family="Helvetica,sans-Serif" font-size="14.00">username</text>
<polygon fill="none" stroke="black" points="479,-129 479,-154 557,-154 557,-129 479,-129"/>
<text text-anchor="start" x="484" y="-137.8" font-family="Helvetica,sans-Serif" font-size="14.00">password</text>
<polygon fill="none" stroke="black" points="479,-104 479,-129 557,-129 557,-104 479,-104"/>
<text text-anchor="start" x="484" y="-112.8" font-family="Helvetica,sans-Serif" font-size="14.00">birthday</text>
<polygon fill="none" stroke="black" points="479,-79 479,-104 557,-104 557,-79 479,-79"/>
<text text-anchor="start" x="484" y="-87.8" font-family="Helvetica,sans-Serif" font-size="14.00">role</text>
<polygon fill="none" stroke="black" points="479,-54 479,-79 557,-79 557,-54 479,-54"/>
<text text-anchor="start" x="484" y="-62.8" font-family="Helvetica,sans-Serif" font-size="14.00">created_at</text>
<polygon fill="none" stroke="black" points="479,-29 479,-54 557,-54 557,-29 479,-29"/>
<text text-anchor="start" x="484" y="-37.8" font-family="Helvetica,sans-Serif" font-size="14.00">updated_at</text>
<polygon fill="none" stroke="black" points="479,-4 479,-29 557,-29 557,-4 479,-4"/>
<text text-anchor="start" x="484" y="-12.8" font-family="Helvetica,sans-Serif" font-size="14.00">deleted_at</text>
</g>
<!-- questionair_results&#45;&#45;users -->
<g id="edge2" class="edge">
<title>questionair_results&#45;&#45;users</title>
<path fill="none" stroke="#7f7f7f" stroke-dasharray="5,2" d="M398.05,-118C423.03,-118 449.35,-118 470.86,-118"/>
<text text-anchor="start" x="463.86" y="-106.8" font-family="Times,serif" font-size="14.00">1</text>
<text text-anchor="start" x="398.05" y="-106.8" font-family="Times,serif" font-size="14.00">0..N</text>
</g>
<!-- statistics -->
<g id="node4" class="node">
<title>statistics</title>
<polygon fill="none" stroke="black" points="35.5,-446 35.5,-474 115.5,-474 115.5,-446 35.5,-446"/>
<text text-anchor="start" x="40.5" y="-457.2" font-family="Helvetica,sans-Serif" font-weight="bold" font-size="16.00">statistics</text>
<polygon fill="none" stroke="black" points="35.5,-421 35.5,-446 115.5,-446 115.5,-421 35.5,-421"/>
<text text-anchor="start" x="40.5" y="-430.8" font-family="Helvetica,sans-Serif" text-decoration="underline" font-size="14.00">id</text>
<polygon fill="none" stroke="black" points="35.5,-396 35.5,-421 115.5,-421 115.5,-396 35.5,-396"/>
<text text-anchor="start" x="40.5" y="-404.8" font-family="Helvetica,sans-Serif" font-size="14.00">calc</text>
<polygon fill="none" stroke="black" points="35.5,-371 35.5,-396 115.5,-396 115.5,-371 35.5,-371"/>
<text text-anchor="start" x="40.5" y="-379.8" font-family="Helvetica,sans-Serif" font-size="14.00">value</text>
<polygon fill="none" stroke="black" points="35.5,-346 35.5,-371 115.5,-371 115.5,-346 35.5,-346"/>
<text text-anchor="start" x="40.5" y="-354.8" font-family="Helvetica,sans-Serif" font-size="14.00">key</text>
<polygon fill="none" stroke="black" points="35.5,-321 35.5,-346 115.5,-346 115.5,-321 35.5,-321"/>
<text text-anchor="start" x="40.5" y="-329.8" font-family="Helvetica,sans-Serif" font-size="14.00">findings</text>
<polygon fill="none" stroke="black" points="35.5,-296 35.5,-321 115.5,-321 115.5,-296 35.5,-296"/>
<text text-anchor="start" x="40.5" y="-304.8" font-family="Helvetica,sans-Serif" font-size="14.00">created_at</text>
<polygon fill="none" stroke="black" points="35.5,-271 35.5,-296 115.5,-296 115.5,-271 35.5,-271"/>
<text text-anchor="start" x="40.5" y="-279.8" font-family="Helvetica,sans-Serif" font-size="14.00">updated_at</text>
<polygon fill="none" stroke="black" points="35.5,-246 35.5,-271 115.5,-271 115.5,-246 35.5,-246"/>
<text text-anchor="start" x="40.5" y="-254.8" font-family="Helvetica,sans-Serif" font-size="14.00">deleted_at</text>
</g>
</g>
</svg>
